<svg width="36" height="36" viewBox="0 0 36 36" fill="none" xmlns="http://www.w3.org/2000/svg">
<path d="M18 17.5384C16.552 17.5384 15.315 17.0254 14.289 15.9995C13.263 14.9735 12.7501 13.7365 12.7501 12.2885C12.7501 10.8404 13.263 9.60339 14.289 8.57744C15.315 7.55149 16.552 7.03851 18 7.03851C19.4481 7.03851 20.6851 7.55149 21.7111 8.57744C22.737 9.60339 23.25 10.8404 23.25 12.2885C23.25 13.7365 22.737 14.9735 21.7111 15.9995C20.6851 17.0254 19.4481 17.5384 18 17.5384ZM6.75006 26.6827V25.6269C6.75006 24.8923 6.94959 24.212 7.34864 23.5861C7.74766 22.9601 8.28082 22.4789 8.94812 22.1423C10.4308 21.4154 11.9265 20.8702 13.4351 20.5068C14.9438 20.1433 16.4654 19.9616 18 19.9616C19.5346 19.9616 21.0562 20.1433 22.5649 20.5068C24.0735 20.8702 25.5692 21.4154 27.0519 22.1423C27.7192 22.4789 28.2524 22.9601 28.6514 23.5861C29.0505 24.212 29.25 24.8923 29.25 25.6269V26.6827C29.25 27.3153 29.0283 27.8533 28.5851 28.2966C28.1418 28.7398 27.6039 28.9615 26.9712 28.9615H9.02886C8.39619 28.9615 7.85822 28.7398 7.41497 28.2966C6.9717 27.8533 6.75006 27.3153 6.75006 26.6827Z" fill="url(#paint0_linear_5_61)"/>
<defs>
<linearGradient id="paint0_linear_5_61" x1="18" y1="7.03851" x2="18" y2="28.9615" gradientUnits="userSpaceOnUse">
<stop stop-color="#4A25E1"/>
<stop offset="1" stop-color="#7B5AFF"/>
</linearGradient>
</defs>
</svg>
